<svg width="16" height="16" viewBox="0 0 16 16" fill="none" xmlns="http://www.w3.org/2000/svg">
<path fill-rule="evenodd" clip-rule="evenodd" d="M8.33325 15.3334C4.46726 15.3334 1.33325 12.1994 1.33325 8.33337C1.33325 4.46738 4.46726 1.33337 8.33325 1.33337C12.1992 1.33337 15.3333 4.46738 15.3333 8.33337C15.3333 12.1994 12.1992 15.3334 8.33325 15.3334ZM8.33325 7.86197L10.0975 6.09767C10.2277 5.9675 10.4388 5.9675 10.569 6.09767C10.6991 6.22785 10.6991 6.4389 10.569 6.56908L8.80466 8.33337L10.569 10.0977C10.6991 10.2278 10.6991 10.4389 10.569 10.5691C10.4388 10.6993 10.2277 10.6993 10.0975 10.5691L8.33325 8.80478L6.56895 10.5691C6.43878 10.6993 6.22772 10.6993 6.09755 10.5691C5.96737 10.4389 5.96737 10.2278 6.09755 10.0977L7.86185 8.33337L6.09755 6.56908C5.96737 6.4389 5.96737 6.22785 6.09755 6.09767C6.22772 5.9675 6.43878 5.9675 6.56895 6.09767L8.33325 7.86197ZM14.6666 8.33337C14.6666 11.8312 11.8311 14.6667 8.33325 14.6667C4.83545 14.6667 1.99992 11.8312 1.99992 8.33337C1.99992 4.83557 4.83545 2.00004 8.33325 2.00004C11.8311 2.00004 14.6666 4.83557 14.6666 8.33337Z" fill="#666666"/>
</svg>