<svg width="32" height="32" viewBox="0 0 32 32" fill="none" xmlns="http://www.w3.org/2000/svg">
<path d="M4 3C4 1.34315 5.34315 0 7 0H15.2574C16.053 0 16.8161 0.316071 17.3787 0.87868L22.5 6L27.1213 10.6213C27.6839 11.1839 28 11.947 28 12.7426V29C28 30.6569 26.6569 32 25 32H7C5.34315 32 4 30.6569 4 29V3Z" fill="white"/>
<path fill-rule="evenodd" clip-rule="evenodd" d="M8 30.6667H24C25.4728 30.6667 26.6667 29.4728 26.6667 28V13.1569C26.6667 12.4496 26.3857 11.7713 25.8856 11.2712L16.7288 2.11438C16.2287 1.61428 15.5504 1.33333 14.8431 1.33333H8C6.52724 1.33333 5.33333 2.52724 5.33333 4V28C5.33333 29.4728 6.52724 30.6667 8 30.6667ZM8 0C5.79086 0 4 1.79086 4 4V28C4 30.2091 5.79086 32 8 32H24C26.2091 32 28 30.2091 28 28V13.1569C28 12.096 27.5786 11.0786 26.8284 10.3284L17.6716 1.17157C16.9214 0.421427 15.904 0 14.8431 0H8Z" fill="#107C41"/>
<path d="M20.6688 20.9999H18.2468L15.9228 17.2199L13.5988 20.9999H11.3308L14.6488 15.8479L11.5408 11.0039H13.8788L16.0348 14.6019L18.1488 11.0039H20.4308L17.2948 15.9599L20.6688 20.9999Z" fill="#107C41"/>
</svg>