<svg width="24" height="32" viewBox="0 0 24 32" fill="none" xmlns="http://www.w3.org/2000/svg">
<path fill-rule="evenodd" clip-rule="evenodd" d="M4 30.6667H20C21.4728 30.6667 22.6667 29.4728 22.6667 28V13.1569C22.6667 12.4496 22.3857 11.7713 21.8856 11.2712L12.7288 2.11438C12.2287 1.61428 11.5504 1.33333 10.8431 1.33333H4C2.52724 1.33333 1.33333 2.52724 1.33333 4V28C1.33333 29.4728 2.52724 30.6667 4 30.6667ZM4 0C1.79086 0 0 1.79086 0 4V28C0 30.2091 1.79086 32 4 32H20C22.2091 32 24 30.2091 24 28V13.1569C24 12.096 23.5786 11.0786 22.8284 10.3284L13.6716 1.17157C12.9214 0.421427 11.904 0 10.8431 0H4Z" fill="#627D98"/>
</svg>