<svg width="32" height="32" viewBox="0 0 32 32" fill="none" xmlns="http://www.w3.org/2000/svg">
<path d="M4 4C4 1.79086 5.79086 0 8 0H14.8431C15.904 0 16.9214 0.421427 17.6716 1.17157L22.5 6L26.8284 10.3284C27.5786 11.0786 28 12.096 28 13.1569V28C28 30.2091 26.2091 32 24 32H8C5.79086 32 4 30.2091 4 28V4Z" fill="white"/>
<path fill-rule="evenodd" clip-rule="evenodd" d="M8 30.6667H24C25.4728 30.6667 26.6667 29.4728 26.6667 28V13.1569C26.6667 12.4496 26.3857 11.7713 25.8856 11.2712L16.7288 2.11438C16.2287 1.61428 15.5504 1.33333 14.8431 1.33333H8C6.52724 1.33333 5.33333 2.52724 5.33333 4V28C5.33333 29.4728 6.52724 30.6667 8 30.6667ZM8 0C5.79086 0 4 1.79086 4 4V28C4 30.2091 5.79086 32 8 32H24C26.2091 32 28 30.2091 28 28V13.1569C28 12.096 27.5786 11.0786 26.8284 10.3284L17.6716 1.17157C16.9214 0.421427 15.904 0 14.8431 0H8Z" fill="#185ABD"/>
<path d="M22.7698 11.0029L20.2218 20.9989H17.8138L16.4558 15.7489C16.4278 15.6463 16.3905 15.4923 16.3438 15.2869C16.3065 15.0816 16.2598 14.8576 16.2038 14.6149C16.1571 14.3723 16.1151 14.1436 16.0778 13.9289C16.0405 13.7049 16.0125 13.5323 15.9938 13.4109C15.9845 13.5323 15.9565 13.7049 15.9098 13.9289C15.8725 14.1436 15.8305 14.3723 15.7838 14.6149C15.7371 14.8483 15.6905 15.0723 15.6438 15.2869C15.5971 15.4923 15.5598 15.6509 15.5318 15.7629L14.1878 20.9989H11.7798L9.23181 11.0029H11.3178L12.5918 16.4629C12.6478 16.6776 12.7085 16.9483 12.7738 17.2749C12.8391 17.6016 12.8998 17.9283 12.9558 18.2549C13.0118 18.5816 13.0538 18.8569 13.0818 19.0809C13.1098 18.8476 13.1518 18.5723 13.2078 18.2549C13.2638 17.9283 13.3198 17.6156 13.3758 17.3169C13.4411 17.0089 13.4971 16.7709 13.5438 16.6029L14.9998 11.0029H17.0018L18.4578 16.6029C18.5045 16.7616 18.5558 16.9949 18.6118 17.3029C18.6771 17.6109 18.7378 17.9283 18.7938 18.2549C18.8498 18.5816 18.8918 18.8569 18.9198 19.0809C18.9478 18.8476 18.9898 18.5723 19.0458 18.2549C19.1018 17.9283 19.1625 17.6016 19.2278 17.2749C19.3025 16.9483 19.3631 16.6776 19.4098 16.4629L20.6838 11.0029H22.7698Z" fill="#185ABD"/>
</svg>